<mxfile host="Electron" agent="Mozilla/5.0 (Windows NT 10.0; Win64; x64) AppleWebKit/537.36 (KHTML, like Gecko) draw.io/24.7.8 Chrome/128.0.6613.36 Electron/32.0.1 Safari/537.36" version="24.7.8">
  <diagram id="C5RBs43oDa-KdzZeNtuy" name="Page-1">
    <mxGraphModel dx="1661" dy="1352" grid="0" gridSize="10" guides="1" tooltips="1" connect="1" arrows="1" fold="1" page="0" pageScale="1" pageWidth="827" pageHeight="1169" math="0" shadow="0">
      <root>
        <mxCell id="WIyWlLk6GJQsqaUBKTNV-0" />
        <mxCell id="WIyWlLk6GJQsqaUBKTNV-1" parent="WIyWlLk6GJQsqaUBKTNV-0" />
        <mxCell id="qs83DIM0NYNpMYCwCTno-118" value="BayarTunai" style="swimlane;fontStyle=1;childLayout=stackLayout;horizontal=1;startSize=26;horizontalStack=0;resizeParent=1;resizeParentMax=0;resizeLast=0;collapsible=1;marginBottom=0;" vertex="1" parent="WIyWlLk6GJQsqaUBKTNV-1">
          <mxGeometry x="-983" y="-335" width="160" height="52" as="geometry" />
        </mxCell>
        <mxCell id="qs83DIM0NYNpMYCwCTno-119" value="+diskon(persen: int) : void" style="text;strokeColor=none;fillColor=none;align=left;verticalAlign=top;spacingLeft=4;spacingRight=4;overflow=hidden;rotatable=0;points=[[0,0.5],[1,0.5]];portConstraint=eastwest;" vertex="1" parent="qs83DIM0NYNpMYCwCTno-118">
          <mxGeometry y="26" width="160" height="26" as="geometry" />
        </mxCell>
        <mxCell id="qs83DIM0NYNpMYCwCTno-113" value="Pembayaran" style="swimlane;fontStyle=0;childLayout=stackLayout;horizontal=1;startSize=26;horizontalStack=0;resizeParent=1;resizeParentMax=0;resizeLast=0;collapsible=1;marginBottom=0;fontSize=13;" vertex="1" parent="WIyWlLk6GJQsqaUBKTNV-1">
          <mxGeometry x="-811" y="-521" width="174" height="78" as="geometry" />
        </mxCell>
        <mxCell id="qs83DIM0NYNpMYCwCTno-115" value="  + tampilInfo(): void" style="text;strokeColor=none;fillColor=none;align=left;verticalAlign=top;spacingLeft=4;spacingRight=4;overflow=hidden;rotatable=0;points=[[0,0.5],[1,0.5]];portConstraint=eastwest;" vertex="1" parent="qs83DIM0NYNpMYCwCTno-113">
          <mxGeometry y="26" width="174" height="26" as="geometry" />
        </mxCell>
        <mxCell id="qs83DIM0NYNpMYCwCTno-116" value="  + bayar(jumlah: int): void" style="text;strokeColor=none;fillColor=none;align=left;verticalAlign=top;spacingLeft=4;spacingRight=4;overflow=hidden;rotatable=0;points=[[0,0.5],[1,0.5]];portConstraint=eastwest;" vertex="1" parent="qs83DIM0NYNpMYCwCTno-113">
          <mxGeometry y="52" width="174" height="26" as="geometry" />
        </mxCell>
        <mxCell id="qs83DIM0NYNpMYCwCTno-121" value="BayarKartuKredit" style="swimlane;fontStyle=1;childLayout=stackLayout;horizontal=1;startSize=26;horizontalStack=0;resizeParent=1;resizeParentMax=0;resizeLast=0;collapsible=1;marginBottom=0;" vertex="1" parent="WIyWlLk6GJQsqaUBKTNV-1">
          <mxGeometry x="-637" y="-332" width="174" height="52" as="geometry" />
        </mxCell>
        <mxCell id="qs83DIM0NYNpMYCwCTno-122" value="+diskon(persen: int): void" style="text;strokeColor=none;fillColor=none;align=left;verticalAlign=top;spacingLeft=4;spacingRight=4;overflow=hidden;rotatable=0;points=[[0,0.5],[1,0.5]];portConstraint=eastwest;" vertex="1" parent="qs83DIM0NYNpMYCwCTno-121">
          <mxGeometry y="26" width="174" height="26" as="geometry" />
        </mxCell>
        <mxCell id="qs83DIM0NYNpMYCwCTno-126" value="DapatDiskon" style="swimlane;fontStyle=1;childLayout=stackLayout;horizontal=1;startSize=26;horizontalStack=0;resizeParent=1;resizeParentMax=0;resizeLast=0;collapsible=1;marginBottom=0;" vertex="1" parent="WIyWlLk6GJQsqaUBKTNV-1">
          <mxGeometry x="-982" y="-161" width="160" height="52" as="geometry" />
        </mxCell>
        <mxCell id="qs83DIM0NYNpMYCwCTno-128" value="  + diskon(persen: int): void" style="text;strokeColor=none;fillColor=none;align=left;verticalAlign=top;spacingLeft=4;spacingRight=4;overflow=hidden;rotatable=0;points=[[0,0.5],[1,0.5]];portConstraint=eastwest;" vertex="1" parent="qs83DIM0NYNpMYCwCTno-126">
          <mxGeometry y="26" width="160" height="26" as="geometry" />
        </mxCell>
        <mxCell id="qs83DIM0NYNpMYCwCTno-130" value="Keranjang Belanja" style="swimlane;fontStyle=1;childLayout=stackLayout;horizontal=1;startSize=26;horizontalStack=0;resizeParent=1;resizeParentMax=0;resizeLast=0;collapsible=1;marginBottom=0;" vertex="1" parent="WIyWlLk6GJQsqaUBKTNV-1">
          <mxGeometry x="-1001" y="-1" width="178" height="104" as="geometry" />
        </mxCell>
        <mxCell id="qs83DIM0NYNpMYCwCTno-131" value="  - total: int" style="text;strokeColor=none;fillColor=none;align=left;verticalAlign=top;spacingLeft=4;spacingRight=4;overflow=hidden;rotatable=0;points=[[0,0.5],[1,0.5]];portConstraint=eastwest;" vertex="1" parent="qs83DIM0NYNpMYCwCTno-130">
          <mxGeometry y="26" width="178" height="26" as="geometry" />
        </mxCell>
        <mxCell id="qs83DIM0NYNpMYCwCTno-132" value="  + KeranjangBelanja(total: int)" style="text;strokeColor=none;fillColor=none;align=left;verticalAlign=top;spacingLeft=4;spacingRight=4;overflow=hidden;rotatable=0;points=[[0,0.5],[1,0.5]];portConstraint=eastwest;" vertex="1" parent="qs83DIM0NYNpMYCwCTno-130">
          <mxGeometry y="52" width="178" height="26" as="geometry" />
        </mxCell>
        <mxCell id="qs83DIM0NYNpMYCwCTno-133" value="  + diskon(persen: int): void" style="text;strokeColor=none;fillColor=none;align=left;verticalAlign=top;spacingLeft=4;spacingRight=4;overflow=hidden;rotatable=0;points=[[0,0.5],[1,0.5]];portConstraint=eastwest;" vertex="1" parent="qs83DIM0NYNpMYCwCTno-130">
          <mxGeometry y="78" width="178" height="26" as="geometry" />
        </mxCell>
        <mxCell id="qs83DIM0NYNpMYCwCTno-143" value="" style="endArrow=classic;html=1;rounded=0;entryX=0.48;entryY=1.174;entryDx=0;entryDy=0;entryPerimeter=0;exitX=0.5;exitY=0;exitDx=0;exitDy=0;" edge="1" parent="WIyWlLk6GJQsqaUBKTNV-1" source="qs83DIM0NYNpMYCwCTno-118" target="qs83DIM0NYNpMYCwCTno-116">
          <mxGeometry width="50" height="50" relative="1" as="geometry">
            <mxPoint x="-891" y="-347" as="sourcePoint" />
            <mxPoint x="-710" y="-308" as="targetPoint" />
            <Array as="points">
              <mxPoint x="-906" y="-374" />
              <mxPoint x="-724" y="-372" />
            </Array>
          </mxGeometry>
        </mxCell>
        <mxCell id="qs83DIM0NYNpMYCwCTno-144" value="" style="endArrow=classic;html=1;rounded=0;entryX=0.493;entryY=1.177;entryDx=0;entryDy=0;entryPerimeter=0;exitX=0.436;exitY=0.077;exitDx=0;exitDy=0;exitPerimeter=0;" edge="1" parent="WIyWlLk6GJQsqaUBKTNV-1" source="qs83DIM0NYNpMYCwCTno-121" target="qs83DIM0NYNpMYCwCTno-116">
          <mxGeometry width="50" height="50" relative="1" as="geometry">
            <mxPoint x="-893" y="-325" as="sourcePoint" />
            <mxPoint x="-717" y="-428" as="targetPoint" />
            <Array as="points">
              <mxPoint x="-556" y="-369" />
              <mxPoint x="-725" y="-374" />
            </Array>
          </mxGeometry>
        </mxCell>
        <mxCell id="qs83DIM0NYNpMYCwCTno-145" value="" style="endArrow=classic;html=1;rounded=0;exitX=0.5;exitY=0;exitDx=0;exitDy=0;entryX=0.45;entryY=1.057;entryDx=0;entryDy=0;entryPerimeter=0;" edge="1" parent="WIyWlLk6GJQsqaUBKTNV-1" source="qs83DIM0NYNpMYCwCTno-130" target="qs83DIM0NYNpMYCwCTno-128">
          <mxGeometry width="50" height="50" relative="1" as="geometry">
            <mxPoint x="-902" y="22" as="sourcePoint" />
            <mxPoint x="-903" y="-90" as="targetPoint" />
          </mxGeometry>
        </mxCell>
        <mxCell id="qs83DIM0NYNpMYCwCTno-146" value="Abtraction" style="text;html=1;align=center;verticalAlign=middle;whiteSpace=wrap;rounded=0;fontSize=34;fontFamily=Comic Sans MS;" vertex="1" parent="WIyWlLk6GJQsqaUBKTNV-1">
          <mxGeometry x="-754" y="-599" width="60" height="30" as="geometry" />
        </mxCell>
        <mxCell id="qs83DIM0NYNpMYCwCTno-190" value="Mobil" style="swimlane;fontStyle=1;childLayout=stackLayout;horizontal=1;startSize=26;horizontalStack=0;resizeParent=1;resizeParentMax=0;resizeLast=0;collapsible=1;marginBottom=0;" vertex="1" parent="WIyWlLk6GJQsqaUBKTNV-1">
          <mxGeometry x="186" y="-353" width="160" height="52" as="geometry" />
        </mxCell>
        <mxCell id="qs83DIM0NYNpMYCwCTno-191" value="+hidupkan(): void" style="text;strokeColor=none;fillColor=none;align=left;verticalAlign=top;spacingLeft=4;spacingRight=4;overflow=hidden;rotatable=0;points=[[0,0.5],[1,0.5]];portConstraint=eastwest;" vertex="1" parent="qs83DIM0NYNpMYCwCTno-190">
          <mxGeometry y="26" width="160" height="26" as="geometry" />
        </mxCell>
        <mxCell id="qs83DIM0NYNpMYCwCTno-192" value="Kendaraan" style="swimlane;fontStyle=0;childLayout=stackLayout;horizontal=1;startSize=26;horizontalStack=0;resizeParent=1;resizeParentMax=0;resizeLast=0;collapsible=1;marginBottom=0;fontSize=13;" vertex="1" parent="WIyWlLk6GJQsqaUBKTNV-1">
          <mxGeometry x="358" y="-539" width="174" height="78" as="geometry" />
        </mxCell>
        <mxCell id="qs83DIM0NYNpMYCwCTno-193" value="+hidupkan() : void" style="text;strokeColor=none;fillColor=none;align=left;verticalAlign=top;spacingLeft=4;spacingRight=4;overflow=hidden;rotatable=0;points=[[0,0.5],[1,0.5]];portConstraint=eastwest;" vertex="1" parent="qs83DIM0NYNpMYCwCTno-192">
          <mxGeometry y="26" width="174" height="26" as="geometry" />
        </mxCell>
        <mxCell id="qs83DIM0NYNpMYCwCTno-194" value="+hidupkan(kunci : String) void" style="text;strokeColor=none;fillColor=none;align=left;verticalAlign=top;spacingLeft=4;spacingRight=4;overflow=hidden;rotatable=0;points=[[0,0.5],[1,0.5]];portConstraint=eastwest;" vertex="1" parent="qs83DIM0NYNpMYCwCTno-192">
          <mxGeometry y="52" width="174" height="26" as="geometry" />
        </mxCell>
        <mxCell id="qs83DIM0NYNpMYCwCTno-195" value="Motor" style="swimlane;fontStyle=1;childLayout=stackLayout;horizontal=1;startSize=26;horizontalStack=0;resizeParent=1;resizeParentMax=0;resizeLast=0;collapsible=1;marginBottom=0;" vertex="1" parent="WIyWlLk6GJQsqaUBKTNV-1">
          <mxGeometry x="532" y="-350" width="174" height="52" as="geometry" />
        </mxCell>
        <mxCell id="qs83DIM0NYNpMYCwCTno-196" value="+hidupkan(): void" style="text;strokeColor=none;fillColor=none;align=left;verticalAlign=top;spacingLeft=4;spacingRight=4;overflow=hidden;rotatable=0;points=[[0,0.5],[1,0.5]];portConstraint=eastwest;" vertex="1" parent="qs83DIM0NYNpMYCwCTno-195">
          <mxGeometry y="26" width="174" height="26" as="geometry" />
        </mxCell>
        <mxCell id="qs83DIM0NYNpMYCwCTno-197" value="" style="endArrow=classic;html=1;rounded=0;entryX=0.48;entryY=1.174;entryDx=0;entryDy=0;entryPerimeter=0;exitX=0.5;exitY=0;exitDx=0;exitDy=0;" edge="1" source="qs83DIM0NYNpMYCwCTno-190" target="qs83DIM0NYNpMYCwCTno-194" parent="WIyWlLk6GJQsqaUBKTNV-1">
          <mxGeometry width="50" height="50" relative="1" as="geometry">
            <mxPoint x="278" y="-365" as="sourcePoint" />
            <mxPoint x="459" y="-326" as="targetPoint" />
            <Array as="points">
              <mxPoint x="263" y="-392" />
              <mxPoint x="445" y="-390" />
            </Array>
          </mxGeometry>
        </mxCell>
        <mxCell id="qs83DIM0NYNpMYCwCTno-198" value="" style="endArrow=classic;html=1;rounded=0;entryX=0.493;entryY=1.177;entryDx=0;entryDy=0;entryPerimeter=0;exitX=0.436;exitY=0.077;exitDx=0;exitDy=0;exitPerimeter=0;" edge="1" source="qs83DIM0NYNpMYCwCTno-195" target="qs83DIM0NYNpMYCwCTno-194" parent="WIyWlLk6GJQsqaUBKTNV-1">
          <mxGeometry width="50" height="50" relative="1" as="geometry">
            <mxPoint x="276" y="-343" as="sourcePoint" />
            <mxPoint x="452" y="-446" as="targetPoint" />
            <Array as="points">
              <mxPoint x="613" y="-387" />
              <mxPoint x="444" y="-392" />
            </Array>
          </mxGeometry>
        </mxCell>
        <mxCell id="qs83DIM0NYNpMYCwCTno-199" value="Polymorphism" style="text;html=1;align=center;verticalAlign=middle;whiteSpace=wrap;rounded=0;fontSize=34;fontFamily=Comic Sans MS;" vertex="1" parent="WIyWlLk6GJQsqaUBKTNV-1">
          <mxGeometry x="431" y="-594" width="60" height="30" as="geometry" />
        </mxCell>
      </root>
    </mxGraphModel>
  </diagram>
</mxfile>
